<svg width="24" height="24" viewBox="0 0 24 24" fill="none" xmlns="http://www.w3.org/2000/svg">
<g id="rocket-fill 1">
<path id="Vector" d="M15.2625 2.9865C16.4775 4.9545 17.637 8.1315 17.9295 13.215L20.1795 15.96C20.7111 16.6252 21.0004 17.4515 21 18.303V23.25C21 23.4074 20.9505 23.5608 20.8584 23.6885C20.7664 23.8162 20.6365 23.9117 20.4872 23.9615C20.3378 24.0113 20.1766 24.0128 20.0264 23.9659C19.8761 23.9189 19.7444 23.8259 19.65 23.7L17.9625 21.45C17.7135 21.117 17.3325 20.85 16.8345 20.595C16.5135 20.433 16.2135 20.307 15.894 20.172L15.6 20.0475C14.55 20.6895 13.275 21 12 21C10.725 21 9.45 20.6895 8.4 20.0475C8.299 20.0915 8.2 20.1335 8.103 20.1735C7.7865 20.307 7.4865 20.433 7.1655 20.595C6.6675 20.85 6.2865 21.117 6.0375 21.45L4.35 23.7C4.25555 23.8259 4.12388 23.9189 3.97363 23.9659C3.82337 24.0128 3.66216 24.0113 3.51283 23.9615C3.3635 23.9117 3.23361 23.8162 3.14157 23.6885C3.04953 23.5608 3 23.4074 3 23.25V18.303C2.99998 17.4513 3.28988 16.625 3.822 15.96L3.828 15.9525L6.0735 13.215C6.369 8.2305 7.527 5.064 8.7345 3.081C9.4335 1.9305 10.1445 1.188 10.6995 0.726C10.9791 0.491882 11.281 0.285887 11.601 0.111C11.7224 0.0406757 11.8597 0.0024719 12 0C12.1515 0 12.255 0.0405 12.375 0.096C12.431 0.121 12.5035 0.1585 12.5925 0.2085C12.7695 0.3075 13.008 0.459 13.287 0.681C13.8465 1.1265 14.562 1.8495 15.2625 2.9865ZM14.25 9C14.25 7.3425 13.242 6 12 6C10.758 6 9.75 7.3425 9.75 9C9.75 10.6575 10.758 12 12 12C13.242 12 14.25 10.6575 14.25 9Z" fill="#F99F15"/>
<path id="Vector_2" d="M11.9998 21.7515C12.7498 21.7515 13.4983 21.6825 14.2183 21.543L12.5997 23.7015C12.5299 23.7946 12.4393 23.8702 12.3352 23.9223C12.231 23.9744 12.1162 24.0015 11.9998 24.0015C11.8833 24.0015 11.7685 23.9744 11.6643 23.9223C11.5602 23.8702 11.4696 23.7946 11.3997 23.7015L9.78125 21.543C10.5012 21.6825 11.2513 21.7515 11.9998 21.7515Z" fill="#F99F15"/>
</g>
</svg>
