<svg width="16" height="26" viewBox="0 0 16 26" fill="none" xmlns="http://www.w3.org/2000/svg">
<g id="lightning-fill 1" clip-path="url(#clip0_328_2336)">
<path id="Vector" d="M4.28044 0.583375C4.32615 0.414909 4.421 0.267018 4.5508 0.16185C4.6806 0.056682 4.83835 -0.000102678 5.00044 1.39379e-07H11.0004C11.1192 9.78147e-05 11.2363 0.0307547 11.342 0.0894471C11.4477 0.14814 11.539 0.233189 11.6084 0.337594C11.6778 0.441999 11.7234 0.562774 11.7413 0.689976C11.7592 0.817178 11.749 0.94717 11.7114 1.06925L9.04144 9.75H14.7504C14.8909 9.7499 15.0285 9.79252 15.1477 9.87301C15.2669 9.95351 15.3628 10.0686 15.4246 10.2053C15.4863 10.342 15.5114 10.4947 15.497 10.646C15.4826 10.7974 15.4292 10.9413 15.3429 11.0614L4.84294 25.6864C4.73537 25.8369 4.58243 25.9418 4.41079 25.9826C4.23915 26.0235 4.05972 25.9977 3.90381 25.9099C3.74791 25.8221 3.62542 25.6777 3.55773 25.502C3.49004 25.3263 3.48144 25.1305 3.53344 24.9486L6.23494 15.4375H1.25044C1.13384 15.4376 1.01882 15.4082 0.914535 15.3517C0.810246 15.2952 0.719555 15.2131 0.649663 15.112C0.579771 15.0109 0.532604 14.8935 0.511908 14.7692C0.491212 14.6449 0.497557 14.5171 0.530439 14.3959L4.28044 0.583375Z" fill="#F99F15"/>
</g>
<defs>
<clipPath id="clip0_328_2336">
<rect width="16" height="26" fill="white"/>
</clipPath>
</defs>
</svg>
