<svg width="24" height="24" viewBox="0 0 24 24" fill="none" xmlns="http://www.w3.org/2000/svg">
<g id="lightning-charge-fill (1) 1" clip-path="url(#clip0_308_1707)">
<path id="Vector" d="M16.8768 0.102663C17.0236 0.18777 17.1372 0.320148 17.1991 0.478169C17.2609 0.63619 17.2673 0.810514 17.2173 0.972663L14.5158 9.75066H19.5003C19.6468 9.7506 19.7901 9.79344 19.9125 9.87389C20.0349 9.95434 20.1311 10.0689 20.1892 10.2034C20.2472 10.3378 20.2646 10.4864 20.2393 10.6306C20.2139 10.7749 20.1468 10.9086 20.0463 11.0152L8.0463 23.7652C7.93019 23.8886 7.77568 23.9691 7.60796 23.9935C7.44024 24.018 7.26919 23.9848 7.1227 23.8996C6.97622 23.8143 6.86292 23.682 6.80129 23.5241C6.73965 23.3662 6.73331 23.1921 6.7833 23.0302L9.4848 14.2507H4.5003C4.35382 14.2507 4.21052 14.2079 4.08811 14.1274C3.96569 14.047 3.86951 13.9325 3.81145 13.798C3.75338 13.6635 3.73596 13.5149 3.76135 13.3707C3.78674 13.2264 3.85381 13.0927 3.9543 12.9862L15.9543 0.236163C16.0703 0.112861 16.2245 0.0324155 16.392 0.00790543C16.5595 -0.0166046 16.7304 0.0162624 16.8768 0.101163V0.102663Z" fill="#FBA31D"/>
</g>
<defs>
<clipPath id="clip0_308_1707">
<rect width="24" height="24" fill="white"/>
</clipPath>
</defs>
</svg>
