<svg width="295" height="266" viewBox="0 0 295 266" fill="none" xmlns="http://www.w3.org/2000/svg">
<g id="Group" filter="url(#filter0_di_385_288)">
<path id="Vector" d="M197.812 172C197.812 172 205 172 205 164.833C205 157.667 197.812 136.167 169.062 136.167C140.312 136.167 133.125 157.667 133.125 164.833C133.125 172 140.312 172 140.312 172H197.812ZM140.471 164.833L140.312 164.805C140.32 162.913 141.513 157.423 145.775 152.478C149.743 147.841 156.714 143.333 169.062 143.333C181.403 143.333 188.375 147.848 192.35 152.478C196.612 157.423 197.798 162.92 197.812 164.805L197.755 164.819L197.654 164.833H140.471ZM169.062 121.833C172.875 121.833 176.531 120.323 179.227 117.635C181.923 114.947 183.438 111.301 183.438 107.5C183.438 103.699 181.923 100.053 179.227 97.3648C176.531 94.6768 172.875 93.1667 169.062 93.1667C165.25 93.1667 161.594 94.6768 158.898 97.3648C156.202 100.053 154.688 103.699 154.688 107.5C154.688 111.301 156.202 114.947 158.898 117.635C161.594 120.323 165.25 121.833 169.062 121.833ZM190.625 107.5C190.625 110.323 190.067 113.119 188.984 115.728C187.9 118.336 186.312 120.706 184.309 122.703C182.307 124.699 179.93 126.283 177.314 127.363C174.698 128.444 171.894 129 169.062 129C166.231 129 163.427 128.444 160.811 127.363C158.195 126.283 155.818 124.699 153.816 122.703C151.813 120.706 150.225 118.336 149.141 115.728C148.058 113.119 147.5 110.323 147.5 107.5C147.5 101.798 149.772 96.3292 153.816 92.2972C157.859 88.2652 163.344 86 169.062 86C174.781 86 180.266 88.2652 184.309 92.2972C188.353 96.3292 190.625 101.798 190.625 107.5ZM139.852 138.173C136.976 137.277 134.013 136.684 131.012 136.403C129.325 136.239 127.632 136.16 125.938 136.167C97.1875 136.167 90 157.667 90 164.833C90 169.611 92.3958 172 97.1875 172H127.49C126.425 169.763 125.894 167.31 125.938 164.833C125.938 157.595 128.647 150.199 133.772 144.021C135.518 141.914 137.552 139.943 139.852 138.173ZM125.363 143.333C121.111 149.708 118.814 157.178 118.75 164.833H97.1875C97.1875 162.97 98.3662 157.452 102.65 152.478C106.567 147.92 113.374 143.477 125.363 143.341V143.333ZM100.781 111.083C100.781 105.381 103.053 99.9126 107.097 95.8805C111.141 91.8485 116.625 89.5833 122.344 89.5833C128.062 89.5833 133.547 91.8485 137.591 95.8805C141.634 99.9126 143.906 105.381 143.906 111.083C143.906 116.785 141.634 122.254 137.591 126.286C133.547 130.318 128.062 132.583 122.344 132.583C116.625 132.583 111.141 130.318 107.097 126.286C103.053 122.254 100.781 116.785 100.781 111.083ZM122.344 96.75C118.531 96.75 114.875 98.2601 112.179 100.948C109.483 103.636 107.969 107.282 107.969 111.083C107.969 114.885 109.483 118.531 112.179 121.219C114.875 123.907 118.531 125.417 122.344 125.417C126.156 125.417 129.813 123.907 132.508 121.219C135.204 118.531 136.719 114.885 136.719 111.083C136.719 107.282 135.204 103.636 132.508 100.948C129.813 98.2601 126.156 96.75 122.344 96.75Z" fill="black"/>
<path id="Vector_2" d="M203 171.5C204 170.5 204.5 166.537 204.5 164.833C204.5 161.37 202.746 154.319 197.433 148.138C192.141 141.982 183.297 136.667 169.062 136.667C154.828 136.667 145.984 141.982 140.692 148.138C135.379 154.319 133.625 161.37 133.625 164.833C133.625 166.537 134.051 167.782 134.664 168.699C135.279 169.619 136.103 170.238 136.942 170.657C137.783 171.076 138.63 171.288 139.271 171.395C139.591 171.448 139.856 171.474 140.039 171.487C140.131 171.494 140.202 171.497 140.248 171.499C140.261 171.499 140.272 171.499 140.281 171.499C140.289 171.5 140.295 171.5 140.3 171.5H140.311H140.313M203 171.5H140.313M203 171.5C201.5 171.5 202.5 171.5 201.5 171.5C200.5 171.5 199.495 171.288 198.854 171.395C198.534 171.448 198.269 171.474 198.086 171.487C198.039 171.491 197.998 171.493 197.963 171.495C197.929 171.497 197.9 171.498 197.877 171.499C197.865 171.499 197.855 171.499 197.847 171.499C197.838 171.5 197.831 171.5 197.825 171.5H197.814H197.812H203ZM140.313 171.5C140.313 171.5 140.312 171.5 140.312 172L140.313 171.5ZM130.965 136.901C133.614 137.148 136.233 137.643 138.788 138.377C136.768 140.011 134.962 141.802 133.387 143.702C128.194 149.962 125.439 157.468 125.438 164.829C125.398 167.12 125.835 169.391 126.719 171.5H97.1875C94.8684 171.5 93.2209 170.922 92.1499 169.854C91.0792 168.787 90.5 167.145 90.5 164.833C90.5 161.37 92.2537 154.319 97.5667 148.138C102.859 141.982 111.703 136.667 125.938 136.667C127.616 136.66 129.294 136.738 130.963 136.901H130.965ZM130.965 136.901C129.278 136.737 127.536 136.66 125.842 136.667L128.534 136.724L130.965 136.901ZM140.381 165.325L140.426 165.333H140.471H197.654H197.69L197.725 165.328L197.826 165.314L197.851 165.31L197.876 165.304L197.933 165.29L198.315 165.195L198.312 164.801C198.297 162.799 197.07 157.188 192.729 152.152C188.657 147.408 181.544 142.833 169.062 142.833C156.575 142.833 149.463 147.4 145.396 152.152C141.056 157.187 139.82 162.792 139.813 164.803L139.811 165.222L140.223 165.297L140.381 165.325ZM125.862 143.333L125.628 142.914L125.088 142.844C113.125 143.045 106.255 147.517 102.271 152.152C97.9094 157.216 96.6875 162.85 96.6875 164.833V165.333H97.1875H118.75H119.246L119.25 164.837C119.312 157.371 121.527 150.081 125.628 143.838L125.862 143.488V143.34V143.333ZM169.062 122.333C173.007 122.333 176.79 120.771 179.58 117.989C182.37 115.208 183.938 111.435 183.938 107.5C183.938 103.565 182.37 99.7924 179.58 97.0107C176.79 94.2291 173.007 92.6667 169.062 92.6667C165.118 92.6667 161.335 94.2291 158.545 97.0107C155.755 99.7924 154.188 103.565 154.188 107.5C154.188 111.435 155.755 115.208 158.545 117.989C161.335 120.771 165.118 122.333 169.062 122.333ZM190.125 107.5C190.125 110.258 189.58 112.988 188.522 115.536C187.464 118.084 185.912 120.399 183.956 122.349C182.001 124.299 179.679 125.846 177.123 126.901C174.568 127.957 171.829 128.5 169.062 128.5C166.296 128.5 163.557 127.957 161.002 126.901C158.446 125.846 156.124 124.299 154.169 122.349C152.213 120.399 150.661 118.084 149.603 115.536C148.545 112.988 148 110.258 148 107.5C148 101.931 150.219 96.5896 154.169 92.6513C158.118 88.7128 163.476 86.5 169.062 86.5C174.649 86.5 180.007 88.7128 183.956 92.6513C187.906 96.5896 190.125 101.931 190.125 107.5ZM101.281 111.083C101.281 105.514 103.5 100.173 107.45 96.2346C111.4 92.2962 116.757 90.0833 122.344 90.0833C127.93 90.0833 133.288 92.2962 137.238 96.2346C141.188 100.173 143.406 105.514 143.406 111.083C143.406 116.652 141.188 121.994 137.238 125.932C133.288 129.87 127.93 132.083 122.344 132.083C116.757 132.083 111.4 129.87 107.45 125.932C103.5 121.994 101.281 116.652 101.281 111.083ZM122.344 96.25C118.399 96.25 114.616 97.8124 111.826 100.594C109.036 103.376 107.469 107.149 107.469 111.083C107.469 115.018 109.036 118.791 111.826 121.573C114.616 124.354 118.399 125.917 122.344 125.917C126.288 125.917 130.072 124.354 132.861 121.573C135.651 118.791 137.219 115.018 137.219 111.083C137.219 107.149 135.651 103.376 132.861 100.594C130.072 97.8124 126.288 96.25 122.344 96.25Z" stroke="#FBA31D" stroke-width="0.7"/>
</g>
<defs>
<filter id="filter0_di_385_288" x="0.900002" y="0.900002" width="293.2" height="264.2" filterUnits="userSpaceOnUse" color-interpolation-filters="sRGB">
<feFlood flood-opacity="0" result="BackgroundImageFix"/>
<feColorMatrix in="SourceAlpha" type="matrix" values="0 0 0 0 0 0 0 0 0 0 0 0 0 0 0 0 0 0 127 0" result="hardAlpha"/>
<feOffset dy="4"/>
<feGaussianBlur stdDeviation="44.55"/>
<feComposite in2="hardAlpha" operator="out"/>
<feColorMatrix type="matrix" values="0 0 0 0 0.984314 0 0 0 0 0.639216 0 0 0 0 0.113725 0 0 0 0.65 0"/>
<feBlend mode="normal" in2="BackgroundImageFix" result="effect1_dropShadow_385_288"/>
<feBlend mode="normal" in="SourceGraphic" in2="effect1_dropShadow_385_288" result="shape"/>
<feColorMatrix in="SourceAlpha" type="matrix" values="0 0 0 0 0 0 0 0 0 0 0 0 0 0 0 0 0 0 127 0" result="hardAlpha"/>
<feOffset/>
<feGaussianBlur stdDeviation="2.65"/>
<feComposite in2="hardAlpha" operator="arithmetic" k2="-1" k3="1"/>
<feColorMatrix type="matrix" values="0 0 0 0 0.984314 0 0 0 0 0.639216 0 0 0 0 0.113725 0 0 0 0.63 0"/>
<feBlend mode="normal" in2="shape" result="effect2_innerShadow_385_288"/>
</filter>
</defs>
</svg>
