<svg width="29" height="29" viewBox="0 0 29 29" fill="none" xmlns="http://www.w3.org/2000/svg">
<g id="house-fill 1">
<path id="Vector" d="M15.7826 2.71818C15.4427 2.37838 14.9818 2.1875 14.5011 2.1875C14.0205 2.1875 13.5596 2.37838 13.2197 2.71818L1.17202 14.764C1.08776 14.8483 1.02092 14.9483 0.975321 15.0584C0.92972 15.1685 0.90625 15.2865 0.90625 15.4057C0.90625 15.5248 0.92972 15.6428 0.975321 15.7529C1.02092 15.863 1.08776 15.963 1.17202 16.0473C1.34219 16.2175 1.57299 16.3131 1.81364 16.3131C1.93281 16.3131 2.0508 16.2896 2.16089 16.244C2.27098 16.1984 2.37101 16.1316 2.45527 16.0473L14.5011 3.99961L26.547 16.0473C26.7172 16.2175 26.948 16.3131 27.1886 16.3131C27.4293 16.3131 27.6601 16.2175 27.8303 16.0473C28.0004 15.8771 28.096 15.6463 28.096 15.4057C28.096 15.165 28.0004 14.9342 27.8303 14.764L23.5636 10.4992V4.53068C23.5636 4.29032 23.4682 4.05981 23.2982 3.88986C23.1283 3.71991 22.8977 3.62443 22.6574 3.62443H20.8449C20.6045 3.62443 20.374 3.71991 20.2041 3.88986C20.0341 4.05981 19.9386 4.29032 19.9386 4.53068V6.87424L15.7826 2.71818Z" fill="#D4D4D4"/>
<path id="Vector_2" d="M14.5 5.96875L25.375 16.8438V24.4689C25.375 25.19 25.0886 25.8815 24.5787 26.3914C24.0688 26.9012 23.3773 27.1877 22.6562 27.1877H6.34375C5.62269 27.1877 4.93117 26.9012 4.4213 26.3914C3.91144 25.8815 3.625 25.19 3.625 24.4689V16.8438L14.5 5.96875Z" fill="#D4D4D4"/>
</g>
</svg>
