<svg width="26" height="13" viewBox="0 0 26 13" fill="none" xmlns="http://www.w3.org/2000/svg">
<g id="infinity 1" clip-path="url(#clip0_308_1705)">
<path id="Vector" d="M9.22886 2.912L11.9345 6.09375L9.23049 9.2755C8.60308 9.89426 7.80674 10.3137 6.9416 10.4811C6.07645 10.6485 5.18112 10.5564 4.36818 10.2164C3.55524 9.87634 2.86098 9.30354 2.37269 8.57C1.8844 7.83647 1.62387 6.97495 1.62387 6.09375C1.62387 5.21256 1.8844 4.35104 2.37269 3.6175C2.86098 2.88397 3.55524 2.31117 4.36818 1.97113C5.18112 1.63109 6.07645 1.53898 6.9416 1.70639C7.80674 1.8738 8.60308 2.29325 9.23049 2.912H9.22886ZM12.9989 4.83925L10.4249 1.80863L10.4021 1.78425C9.54982 0.932187 8.46402 0.351973 7.28199 0.116975C6.09996 -0.118024 4.8748 0.00274683 3.7614 0.464016C2.64801 0.925284 1.69639 1.70634 1.02687 2.70841C0.357352 3.71049 0 4.88859 0 6.09375C0 7.29891 0.357352 8.47701 1.02687 9.47909C1.69639 10.4812 2.64801 11.2622 3.7614 11.7235C4.8748 12.1848 6.09996 12.3055 7.28199 12.0705C8.46402 11.8355 9.54982 11.2553 10.4021 10.4033L10.4249 10.3789L12.9989 7.34825L15.5729 10.3789L15.5956 10.4033C16.4479 11.2553 17.5337 11.8355 18.7157 12.0705C19.8978 12.3055 21.1229 12.1848 22.2363 11.7235C23.3497 11.2622 24.3013 10.4812 24.9709 9.47909C25.6404 8.47701 25.9977 7.29891 25.9977 6.09375C25.9977 4.88859 25.6404 3.71049 24.9709 2.70841C24.3013 1.70634 23.3497 0.925284 22.2363 0.464016C21.1229 0.00274683 19.8978 -0.118024 18.7157 0.116975C17.5337 0.351973 16.4479 0.932187 15.5956 1.78425L15.5729 1.80863L12.9989 4.83925ZM14.0649 6.09375L16.7672 2.912C17.3946 2.29325 18.191 1.8738 19.0561 1.70639C19.9213 1.53898 20.8166 1.63109 21.6295 1.97113C22.4425 2.31117 23.1367 2.88397 23.625 3.6175C24.1133 4.35104 24.3739 5.21256 24.3739 6.09375C24.3739 6.97495 24.1133 7.83647 23.625 8.57C23.1367 9.30354 22.4425 9.87634 21.6295 10.2164C20.8166 10.5564 19.9213 10.6485 19.0561 10.4811C18.191 10.3137 17.3946 9.89426 16.7672 9.2755L14.0649 6.09375Z" fill="#FBA31D"/>
</g>
<defs>
<clipPath id="clip0_308_1705">
<rect width="26" height="13" fill="white"/>
</clipPath>
</defs>
</svg>
