<svg width="30" height="30" viewBox="0 0 30 30" fill="none" xmlns="http://www.w3.org/2000/svg">
<g id="battery-half 1" clip-path="url(#clip0_308_1725)">
<path id="Vector" d="M3.75 11.25H13.125V18.75H3.75V11.25Z" fill="#D4D4D4"/>
<path id="Vector_2" d="M3.75 7.5C2.75544 7.5 1.80161 7.89509 1.09835 8.59835C0.395088 9.30161 0 10.2554 0 11.25L0 18.75C0 19.7446 0.395088 20.6984 1.09835 21.4016C1.80161 22.1049 2.75544 22.5 3.75 22.5H22.5C23.4946 22.5 24.4484 22.1049 25.1516 21.4016C25.8549 20.6984 26.25 19.7446 26.25 18.75V11.25C26.25 10.2554 25.8549 9.30161 25.1516 8.59835C24.4484 7.89509 23.4946 7.5 22.5 7.5H3.75ZM22.5 9.375C22.9973 9.375 23.4742 9.57254 23.8258 9.92418C24.1775 10.2758 24.375 10.7527 24.375 11.25V18.75C24.375 19.2473 24.1775 19.7242 23.8258 20.0758C23.4742 20.4275 22.9973 20.625 22.5 20.625H3.75C3.25272 20.625 2.77581 20.4275 2.42417 20.0758C2.07254 19.7242 1.875 19.2473 1.875 18.75V11.25C1.875 10.7527 2.07254 10.2758 2.42417 9.92418C2.77581 9.57254 3.25272 9.375 3.75 9.375H22.5ZM30 15C30 15.7459 29.7037 16.4613 29.1762 16.9887C28.6488 17.5162 27.9334 17.8125 27.1875 17.8125V12.1875C27.9334 12.1875 28.6488 12.4838 29.1762 13.0113C29.7037 13.5387 30 14.2541 30 15Z" fill="#D4D4D4"/>
</g>
<defs>
<clipPath id="clip0_308_1725">
<rect width="30" height="30" fill="white"/>
</clipPath>
</defs>
</svg>
