<svg width="23" height="23" viewBox="0 0 23 23" fill="none" xmlns="http://www.w3.org/2000/svg">
<g id="rocket-takeoff-fill 1" clip-path="url(#clip0_308_1696)">
<path id="Vector" d="M17.4964 13.6995C20.8127 9.97354 22.2085 6.96629 22.7303 4.76116C23.0322 3.4861 23.038 2.48991 22.9603 1.79273C22.9302 1.51926 22.8783 1.24863 22.8051 0.983413C22.7744 0.871035 22.737 0.760623 22.693 0.652788C22.588 0.417038 22.4515 0.314976 22.187 0.227288C22.1112 0.202548 22.0345 0.180967 21.957 0.162601C21.6874 0.0983531 21.4136 0.0536741 21.1376 0.0289131C20.4332 -0.0343369 19.427 -0.0142119 18.1476 0.299163C15.9396 0.836788 12.9467 2.22973 9.29115 5.47991L5.84115 5.82204H5.83253C5.0035 5.91424 4.23071 6.28644 3.64178 6.87716L0.217652 10.307C0.1092 10.4163 0.0377166 10.5567 0.0132586 10.7087C-0.0111994 10.8606 0.0125988 11.0165 0.0813053 11.1542C0.150012 11.2919 0.260169 11.4046 0.39628 11.4765C0.532391 11.5484 0.687606 11.5757 0.84009 11.5548L3.56559 11.1652C3.96809 11.1077 4.41659 11.1839 4.9384 11.355C5.2719 11.4642 5.56659 11.585 5.87997 11.7115L6.17178 11.8308C6.45353 13.0038 7.12053 14.102 8.00459 14.9861C8.88578 15.8687 9.98259 16.5386 11.1542 16.8218L11.272 17.1122C11.4 17.4255 11.5207 17.7217 11.63 18.0566C11.7996 18.5784 11.8772 19.0284 11.8197 19.4309L11.4302 22.1621C11.4096 22.3143 11.4372 22.4691 11.509 22.6049C11.5808 22.7406 11.6933 22.8505 11.8307 22.9191C11.9681 22.9877 12.1235 23.0116 12.2752 22.9875C12.4268 22.9634 12.5671 22.8924 12.6765 22.7845L16.1006 19.3547C16.69 18.7653 17.0608 17.9905 17.1528 17.161L17.4964 13.6995ZM17.6545 8.38223C16.5088 9.53223 14.8802 9.76366 14.0205 8.9026C13.1609 8.0401 13.3938 6.41141 14.5395 5.26285C15.6866 4.11429 17.3138 3.88285 18.1735 4.74391C19.0331 5.60498 18.8017 7.23366 17.656 8.38223H17.6545Z" fill="#FBA31D"/>
<path id="Vector_2" d="M7.48244 15.5055C8.24543 16.2786 9.11946 16.9337 10.0757 17.449C8.46856 18.8965 2.99025 20.3642 2.81056 20.1845C2.62944 20.002 3.87 14.1628 5.45413 12.7383C5.9515 13.7302 6.65731 14.6789 7.48244 15.5055Z" fill="#FBA31D"/>
</g>
<defs>
<clipPath id="clip0_308_1696">
<rect width="23" height="23" fill="white"/>
</clipPath>
</defs>
</svg>
