<svg width="25" height="26" viewBox="0 0 25 26" fill="none" xmlns="http://www.w3.org/2000/svg">
<g id="clipboard-check-fill 1" clip-path="url(#clip0_308_1730)">
<path id="Vector" d="M9.98772 0C9.32172 0 8.683 0.256807 8.21206 0.713927C7.74113 1.17105 7.47656 1.79103 7.47656 2.4375V4.0625C7.47656 4.70897 7.74113 5.32895 8.21206 5.78607C8.683 6.24319 9.32172 6.5 9.98772 6.5H15.01C15.676 6.5 16.3148 6.24319 16.7857 5.78607C17.2566 5.32895 17.5212 4.70897 17.5212 4.0625V2.4375C17.5212 1.79103 17.2566 1.17105 16.7857 0.713927C16.3148 0.256807 15.676 0 15.01 0L9.98772 0ZM15.01 1.625C15.232 1.625 15.445 1.7106 15.6019 1.86298C15.7589 2.01535 15.8471 2.22201 15.8471 2.4375V4.0625C15.8471 4.27799 15.7589 4.48465 15.6019 4.63702C15.445 4.7894 15.232 4.875 15.01 4.875H9.98772C9.76572 4.875 9.55282 4.7894 9.39584 4.63702C9.23886 4.48465 9.15067 4.27799 9.15067 4.0625V2.4375C9.15067 2.22201 9.23886 2.01535 9.39584 1.86298C9.55282 1.7106 9.76572 1.625 9.98772 1.625H15.01Z" fill="#D4D4D4"/>
<path id="Vector_2" d="M5.80357 2.4375H4.12946C3.24146 2.4375 2.38983 2.77991 1.76192 3.3894C1.13401 3.9989 0.78125 4.82555 0.78125 5.6875V22.75C0.78125 23.612 1.13401 24.4386 1.76192 25.0481C2.38983 25.6576 3.24146 26 4.12946 26H20.8705C21.7585 26 22.6102 25.6576 23.2381 25.0481C23.866 24.4386 24.2188 23.612 24.2188 22.75V5.6875C24.2188 4.82555 23.866 3.9989 23.2381 3.3894C22.6102 2.77991 21.7585 2.4375 20.8705 2.4375H19.1964V4.0625C19.1964 4.596 19.0882 5.12427 18.8778 5.61715C18.6675 6.11004 18.3592 6.55788 17.9706 6.93512C17.582 7.31236 17.1206 7.6116 16.6128 7.81576C16.105 8.01992 15.5608 8.125 15.0112 8.125H9.98884C8.87884 8.125 7.8143 7.69699 7.02941 6.93512C6.24452 6.17325 5.80357 5.13994 5.80357 4.0625V2.4375ZM17.2779 14.3878L12.2556 19.2628C12.1778 19.3384 12.0855 19.3984 11.9838 19.4394C11.8821 19.4804 11.773 19.5015 11.6629 19.5015C11.5528 19.5015 11.4438 19.4804 11.3421 19.4394C11.2404 19.3984 11.1481 19.3384 11.0703 19.2628L8.55915 16.8253C8.40198 16.6727 8.31367 16.4658 8.31367 16.25C8.31367 16.0342 8.40198 15.8273 8.55915 15.6747C8.71633 15.5222 8.92951 15.4365 9.15179 15.4365C9.37407 15.4365 9.58724 15.5222 9.74442 15.6747L11.6629 17.5386L16.0926 13.2372C16.2498 13.0847 16.463 12.999 16.6853 12.999C16.9075 12.999 17.1207 13.0847 17.2779 13.2372C17.4351 13.3898 17.5234 13.5967 17.5234 13.8125C17.5234 14.0283 17.4351 14.2352 17.2779 14.3878Z" fill="#D4D4D4"/>
</g>
<defs>
<clipPath id="clip0_308_1730">
<rect width="25" height="26" fill="white"/>
</clipPath>
</defs>
</svg>
